<?xml version="1.0" encoding="UTF-8"?>
<svg version="1.1" xmlns="http://www.w3.org/2000/svg" width="403" height="403">
<path d="M0 0 C132.99 0 265.98 0 403 0 C403 132.99 403 265.98 403 403 C270.01 403 137.02 403 0 403 C0 270.01 0 137.02 0 0 Z " fill="#0B87FF" transform="translate(0,0)"/>
<path d="M0 0 C20.79 0 41.58 0 63 0 C63.495 11.385 63.495 11.385 64 23 C65.19625 21.845 66.3925 20.69 67.625 19.5 C84.74115568 4.34227593 106.32876297 -1.15930093 128.80908203 -0.15234375 C149.24302149 1.26851409 167.82749737 8.88876941 182 24 C189.85544031 33.87254699 195.2365982 44.10193704 198.25 56.375 C198.41346924 57.0340332 198.57693848 57.69306641 198.74536133 58.37207031 C201.15362959 69.03267114 201.14837645 80.0732484 201.11352539 90.95043945 C201.11367142 92.17153412 201.11381744 93.39262878 201.1139679 94.65072632 C201.11339643 97.9535877 201.1084306 101.25640501 201.10139394 104.55925775 C201.09508212 108.02788105 201.09455048 111.4965055 201.09336853 114.96513367 C201.09027806 121.51312122 201.0820959 128.06109179 201.07201904 134.60907191 C201.05968158 142.80643529 201.05425717 151.00380151 201.04882812 159.20117188 C201.03912881 173.80079443 201.01909002 188.40038001 201 203 C180.21 203 159.42 203 138 203 C137.97421875 193.90179688 137.9484375 184.80359375 137.921875 175.4296875 C137.89671159 169.66924924 137.87054583 163.9088445 137.83984375 158.1484375 C137.79128818 149.00325749 137.74685072 139.85818901 137.72900391 130.71289062 C137.71598725 124.05238109 137.6890225 117.39209818 137.64538693 110.73171628 C137.62277208 107.20583152 137.60708931 103.68022626 137.60811615 100.15426254 C137.60900158 96.21572676 137.57874342 92.27776147 137.54589844 88.33935547 C137.5509288 87.17338333 137.55595917 86.00741119 137.56114197 84.80610657 C137.48122529 78.62059059 137.33214861 74.60176683 133 70 C129.91326885 67.80133719 127.23414048 67.74311554 123.50048828 67.7253418 C121.84824753 67.71104378 121.84824753 67.71104378 120.16262817 67.69645691 C118.977164 67.69736832 117.79169983 67.69827972 116.5703125 67.69921875 C115.34722382 67.69493362 114.12413513 67.6906485 112.86398315 67.68623352 C110.27667866 67.68049028 107.68935802 67.6799899 105.10205078 67.68432617 C101.14717981 67.6874823 97.19305952 67.66403881 93.23828125 67.63867188 C90.72395928 67.63639849 88.20963529 67.63569557 85.6953125 67.63671875 C84.51389679 67.627509 83.33248108 67.61829926 82.11526489 67.60881042 C74.08442501 67.55803628 74.08442501 67.55803628 67 71 C64.44347535 74.57654501 63.622908 77.04800292 63.60127258 81.42268372 C63.58873444 82.4981546 63.57619629 83.57362549 63.5632782 84.6816864 C63.56471329 85.85125381 63.56614838 87.02082123 63.56762695 88.22583008 C63.5574353 89.46526367 63.54724365 90.70469727 63.53674316 91.98168945 C63.51175545 95.37190726 63.49989268 98.76169204 63.49388909 102.15196443 C63.48449801 105.69811267 63.45829406 109.24413598 63.43388367 112.79020691 C63.39023507 119.50134139 63.3616781 126.2124516 63.33856028 132.92368478 C63.30643804 141.99528411 63.25096814 151.06673885 63.19681454 160.13822842 C63.11213971 174.4254426 63.05862949 188.71260022 63 203 C42.21 203 21.42 203 0 203 C0 136.01 0 69.02 0 0 Z " fill="#FDFEFF" transform="translate(101,100)"/>
<path d="M0 0 C12.21 0 24.42 0 37 0 C37 12.21 37 24.42 37 37 C24.79 37 12.58 37 0 37 C0 24.79 0 12.58 0 0 Z " fill="#F5FAFF" transform="translate(183,183)"/>
<path d="M0 0 C16.17 0 32.34 0 49 0 C49 3.96 49 7.92 49 12 C32.83 12 16.66 12 0 12 C0 8.04 0 4.08 0 0 Z " fill="#E9F4FF" transform="translate(177,280)"/>
<path d="M0 0 C16.17 0 32.34 0 49 0 C49 3.63 49 7.26 49 11 C32.83 11 16.66 11 0 11 C0 7.37 0 3.74 0 0 Z " fill="#F7FBFF" transform="translate(177,258)"/>
<path d="M0 0 C16.17 0 32.34 0 49 0 C49 3.63 49 7.26 49 11 C32.83 11 16.66 11 0 11 C0 7.37 0 3.74 0 0 Z " fill="#FAFDFF" transform="translate(177,236)"/>
</svg>
